<svg width="533" height="196" viewBox="0 0 533 196" fill="none" xmlns="http://www.w3.org/2000/svg">
<path d="M198.42 48V90H192.42V71.28H168.3V90H162.3V48H168.3V66.06H192.42V48H198.42ZM237.751 79.5H215.431L210.811 90H204.631L223.651 48H229.591L248.671 90H242.371L237.751 79.5ZM235.651 74.7L226.591 54.12L217.531 74.7H235.651ZM291.057 48V90H286.137L260.937 58.68V90H254.937V48H259.857L285.057 79.32V48H291.057ZM339.748 48V90H334.828L309.628 58.68V90H303.628V48H308.548L333.748 79.32V48H339.748ZM379.08 79.5H356.76L352.14 90H345.96L364.98 48H370.92L390 90H383.7L379.08 79.5ZM376.98 74.7L367.92 54.12L358.86 74.7H376.98Z" fill="white"/>
<path d="M191.4 126.76H197.16V143.14C195.08 144.86 192.66 146.18 189.9 147.1C187.14 148.02 184.26 148.48 181.26 148.48C177.02 148.48 173.2 147.56 169.8 145.72C166.4 143.84 163.72 141.28 161.76 138.04C159.84 134.76 158.88 131.08 158.88 127C158.88 122.92 159.84 119.24 161.76 115.96C163.72 112.68 166.4 110.12 169.8 108.28C173.24 106.44 177.1 105.52 181.38 105.52C184.74 105.52 187.78 106.08 190.5 107.2C193.26 108.28 195.6 109.88 197.52 112L193.8 115.72C190.44 112.48 186.38 110.86 181.62 110.86C178.42 110.86 175.54 111.56 172.98 112.96C170.46 114.32 168.48 116.24 167.04 118.72C165.6 121.16 164.88 123.92 164.88 127C164.88 130.04 165.6 132.8 167.04 135.28C168.48 137.72 170.46 139.64 172.98 141.04C175.54 142.44 178.4 143.14 181.56 143.14C185.32 143.14 188.6 142.24 191.4 140.44V126.76ZM227.608 148.48C223.368 148.48 219.548 147.56 216.148 145.72C212.748 143.84 210.068 141.26 208.108 137.98C206.188 134.7 205.228 131.04 205.228 127C205.228 122.96 206.188 119.3 208.108 116.02C210.068 112.74 212.748 110.18 216.148 108.34C219.548 106.46 223.368 105.52 227.608 105.52C231.808 105.52 235.608 106.46 239.008 108.34C242.408 110.18 245.068 112.74 246.988 116.02C248.908 119.26 249.868 122.92 249.868 127C249.868 131.08 248.908 134.76 246.988 138.04C245.068 141.28 242.408 143.84 239.008 145.72C235.608 147.56 231.808 148.48 227.608 148.48ZM227.608 143.14C230.688 143.14 233.448 142.44 235.888 141.04C238.368 139.64 240.308 137.72 241.708 135.28C243.148 132.8 243.868 130.04 243.868 127C243.868 123.96 243.148 121.22 241.708 118.78C240.308 116.3 238.368 114.36 235.888 112.96C233.448 111.56 230.688 110.86 227.608 110.86C224.528 110.86 221.728 111.56 219.208 112.96C216.728 114.36 214.768 116.3 213.328 118.78C211.928 121.22 211.228 123.96 211.228 127C211.228 130.04 211.928 132.8 213.328 135.28C214.768 137.72 216.728 139.64 219.208 141.04C221.728 142.44 224.528 143.14 227.608 143.14ZM297.978 148L297.918 117.4L282.738 142.9H279.978L264.798 117.58V148H259.038V106H263.958L281.478 135.52L298.758 106H303.678L303.738 148H297.978ZM335.303 148.48C331.063 148.48 327.243 147.56 323.843 145.72C320.443 143.84 317.763 141.26 315.803 137.98C313.883 134.7 312.923 131.04 312.923 127C312.923 122.96 313.883 119.3 315.803 116.02C317.763 112.74 320.443 110.18 323.843 108.34C327.243 106.46 331.063 105.52 335.303 105.52C339.503 105.52 343.303 106.46 346.703 108.34C350.103 110.18 352.763 112.74 354.683 116.02C356.603 119.26 357.563 122.92 357.563 127C357.563 131.08 356.603 134.76 354.683 138.04C352.763 141.28 350.103 143.84 346.703 145.72C343.303 147.56 339.503 148.48 335.303 148.48ZM335.303 143.14C338.383 143.14 341.143 142.44 343.583 141.04C346.063 139.64 348.003 137.72 349.403 135.28C350.843 132.8 351.563 130.04 351.563 127C351.563 123.96 350.843 121.22 349.403 118.78C348.003 116.3 346.063 114.36 343.583 112.96C341.143 111.56 338.383 110.86 335.303 110.86C332.223 110.86 329.423 111.56 326.903 112.96C324.423 114.36 322.463 116.3 321.023 118.78C319.623 121.22 318.923 123.96 318.923 127C318.923 130.04 319.623 132.8 321.023 135.28C322.463 137.72 324.423 139.64 326.903 141.04C329.423 142.44 332.223 143.14 335.303 143.14ZM397.645 142.78V148H362.545V143.92L388.945 111.22H362.965V106H396.865V110.08L370.585 142.78H397.645ZM424.19 148.48C419.95 148.48 416.13 147.56 412.73 145.72C409.33 143.84 406.65 141.26 404.69 137.98C402.77 134.7 401.81 131.04 401.81 127C401.81 122.96 402.77 119.3 404.69 116.02C406.65 112.74 409.33 110.18 412.73 108.34C416.13 106.46 419.95 105.52 424.19 105.52C428.39 105.52 432.19 106.46 435.59 108.34C438.99 110.18 441.65 112.74 443.57 116.02C445.49 119.26 446.45 122.92 446.45 127C446.45 131.08 445.49 134.76 443.57 138.04C441.65 141.28 438.99 143.84 435.59 145.72C432.19 147.56 428.39 148.48 424.19 148.48ZM424.19 143.14C427.27 143.14 430.03 142.44 432.47 141.04C434.95 139.64 436.89 137.72 438.29 135.28C439.73 132.8 440.45 130.04 440.45 127C440.45 123.96 439.73 121.22 438.29 118.78C436.89 116.3 434.95 114.36 432.47 112.96C430.03 111.56 427.27 110.86 424.19 110.86C421.11 110.86 418.31 111.56 415.79 112.96C413.31 114.36 411.35 116.3 409.91 118.78C408.51 121.22 407.81 123.96 407.81 127C407.81 130.04 408.51 132.8 409.91 135.28C411.35 137.72 413.31 139.64 415.79 141.04C418.31 142.44 421.11 143.14 424.19 143.14ZM490.753 106L472.333 148H466.393L447.913 106H454.393L469.513 140.5L484.753 106H490.753ZM521.521 137.5H499.201L494.581 148H488.401L507.421 106H513.361L532.441 148H526.141L521.521 137.5ZM519.421 132.7L510.361 112.12L501.301 132.7H519.421Z" fill="white"/>
<path d="M7.168 127.544C5.54667 127.544 4.736 126.819 4.736 125.368C4.736 115.299 10.624 99.5973 22.4 78.264C23.2533 76.728 24.576 74.4667 26.368 71.48C23.4667 71.8213 21.0347 72.4613 19.072 73.4C17.1947 74.2533 15.9573 74.68 15.36 74.68C13.824 74.68 13.056 73.9547 13.056 72.504C13.056 70.2853 18.3467 68.3653 28.928 66.744C30.3787 64.2693 32.2133 61.1973 34.432 57.528C36.736 53.8587 39.4667 49.5493 42.624 44.6C44.928 40.9307 46.8907 37.7307 48.512 35C50.1333 32.184 51.456 29.624 52.48 27.32C52.8213 26.4667 53.376 26.04 54.144 26.04C55.7653 26.04 56.576 26.8933 56.576 28.6C56.576 29.1973 55.552 31.2027 53.504 34.616C51.5413 37.944 48.4267 43.064 44.16 49.976L34.048 66.232C37.2907 65.8907 40.704 65.6347 44.288 65.464C47.872 65.2933 51.5413 65.208 55.296 65.208C62.8053 65.208 76.5867 65.848 96.64 67.128C98.3467 63.4587 100.139 59.8747 102.016 56.376C103.979 52.792 106.027 49.2507 108.16 45.752C111.232 40.5467 113.92 36.4933 116.224 33.592C118.528 30.6053 120.235 28.6853 121.344 27.832C122.453 26.9787 123.349 26.552 124.032 26.552C125.312 26.552 125.952 27.2347 125.952 28.6C125.952 29.2827 125.568 29.88 124.8 30.392C123.264 31.5013 121.387 33.5067 119.168 36.408C116.949 39.3093 114.475 43.1067 111.744 47.8C107.648 54.712 104.149 61.2827 101.248 67.512C104.235 67.512 105.728 68.2373 105.728 69.688C105.728 70.2853 105.515 70.7973 105.088 71.224C104.661 71.6507 104.021 71.8213 103.168 71.736L99.328 71.48C90.7093 90.68 86.4 103.821 86.4 110.904V113.72C86.4 114.744 85.6747 115.256 84.224 115.256C82.8587 115.256 82.176 113.763 82.176 110.776C82.176 103.267 86.3573 90.04 94.72 71.096C84.3093 70.4987 75.7333 70.072 68.992 69.816C62.336 69.56 57.5147 69.432 54.528 69.432C46.1653 69.432 38.528 69.816 31.616 70.584L26.112 80.184C21.9307 87.608 18.6453 94.264 16.256 100.152C13.8667 105.955 12.2453 110.307 11.392 113.208C10.5387 116.536 9.984 119.096 9.728 120.888C9.472 122.68 9.25867 124.344 9.088 125.88C9.00267 126.989 8.36267 127.544 7.168 127.544Z" fill="#A98BF8"/>
<path d="M64.592 159.504C57.5947 159.504 51.408 158.096 46.032 155.28C40.656 152.464 36.432 148.496 33.36 143.376C30.288 138.171 28.752 132.155 28.752 125.328C28.752 118.075 30.2027 111.461 33.104 105.488C36.0053 99.5147 40.1867 94.0533 45.648 89.104C61.1787 75.024 79.6533 67.984 101.072 67.984C105.595 67.984 109.904 68.7947 114 70.416C118.181 71.952 121.595 74.256 124.24 77.328C126.885 80.3147 128.208 83.9413 128.208 88.208C128.208 91.7067 127.141 94.6933 125.008 97.168C124.496 97.8507 123.643 98.7467 122.448 99.856C121.339 100.88 120.357 101.392 119.504 101.392C118.821 101.392 118.139 101.136 117.456 100.624C116.773 100.027 116.432 99.4293 116.432 98.832C116.432 98.4053 116.731 97.936 117.328 97.424C117.925 96.8267 118.821 95.9733 120.016 94.864C122.32 92.56 123.472 89.9573 123.472 87.056C123.472 83.5573 122.235 80.656 119.76 78.352C117.371 76.048 114.299 74.3413 110.544 73.232C106.789 72.0373 102.821 71.44 98.64 71.44C89.2533 71.44 80.08 73.4453 71.12 77.456C62.2453 81.3813 54.3947 86.7573 47.568 93.584C43.0453 98.1067 39.5467 103.056 37.072 108.432C34.6827 113.723 33.488 119.653 33.488 126.224C33.488 131.685 34.4693 136.251 36.432 139.92C38.48 143.589 41.0827 146.576 44.24 148.88C47.4827 151.184 51.024 152.891 54.864 154C58.704 155.024 62.3733 155.536 65.872 155.536C69.968 155.536 74.32 154.981 78.928 153.872C83.6213 152.763 88.1867 151.269 92.624 149.392C97.1467 147.429 101.2 145.296 104.784 142.992C106.32 141.968 107.557 141.072 108.496 140.304C109.52 139.536 110.245 138.939 110.672 138.512L114.512 131.984C115.536 130.277 116.773 128.144 118.224 125.584C119.675 123.024 121.339 120.037 123.216 116.624C120.571 116.624 117.243 117.008 113.232 117.776C109.221 118.544 105.04 119.525 100.688 120.72C98.0427 121.403 95.3973 122.213 92.752 123.152C90.192 124.005 88.5707 124.432 87.888 124.432C86.4373 124.432 85.712 123.664 85.712 122.128C85.712 121.701 85.84 121.36 86.096 121.104C86.352 120.763 86.9067 120.379 87.76 119.952C89.7227 118.843 92.24 117.819 95.312 116.88C98.384 115.856 101.797 115.003 105.552 114.32C108.965 113.637 112.336 113.168 115.664 112.912C118.992 112.656 122.235 112.571 125.392 112.656L125.776 111.888C126.117 111.035 126.715 110.608 127.568 110.608C128.848 110.608 129.659 111.291 130 112.656C132.133 112.741 134.565 113.04 137.296 113.552C138.661 113.808 139.344 114.576 139.344 115.856C139.344 117.136 138.704 117.776 137.424 117.776C136.827 117.776 135.632 117.605 133.84 117.264C132.133 116.923 130.256 116.752 128.208 116.752C126.331 120.421 122.619 126.949 117.072 136.336C115.963 138.213 115.024 139.835 114.256 141.2C113.488 142.565 112.891 143.717 112.464 144.656C110.928 147.643 109.776 150.544 109.008 153.36C108.752 154.299 108.24 154.768 107.472 154.768C105.765 154.768 104.912 154 104.912 152.464C104.912 151.44 105.509 149.349 106.704 146.192C102.864 148.667 98.4693 150.928 93.52 152.976C88.656 154.939 83.7067 156.517 78.672 157.712C73.6373 158.907 68.944 159.504 64.592 159.504Z" fill="#A98BF8"/>
</svg>
